<?xml version="1.0" encoding="UTF-8" standalone="no"?>
<svg
   xmlns:dc="http://purl.org/dc/elements/1.1/"
   xmlns:cc="http://creativecommons.org/ns#"
   xmlns:rdf="http://www.w3.org/1999/02/22-rdf-syntax-ns#"
   xmlns:svg="http://www.w3.org/2000/svg"
   xmlns="http://www.w3.org/2000/svg"
   id="svg2"
   height="45"
   width="45"
   version="1.1">
  <metadata
     id="metadata18">
    <rdf:RDF>
      <cc:Work
         rdf:about="">
        <dc:format>image/svg+xml</dc:format>
        <dc:type
           rdf:resource="http://purl.org/dc/dcmitype/StillImage" />
        <dc:title></dc:title>
      </cc:Work>
    </rdf:RDF>
  </metadata>
  <defs
     id="defs41" />
  <rect
     style="fill:#ffffff;fill-opacity:1;stroke:#000000;stroke-width:2"
     id="rect4"
     transform="matrix(0,-1,1,0,0,0)"
     y="1"
     x="-28.391254"
     height="43"
     width="10.439099" />
  <line
     id="line10-68"
     style="fill:#aaaaaa;stroke:#000000;stroke-width:2;stroke-miterlimit:0;stroke-dasharray:none"
     x2="22.5"
     x1="22.5"
     y2="17.085777"
     y1="26.152546" />
  <path
     style="fill:#000000;fill-opacity:1;fill-rule:nonzero;stroke:none"
     id="path3633-3-49"
     d="m 26.5,25.84837 a 4,1.8542272 0 1 1 -7.999999,0 4,1.8542272 0 1 1 7.999999,0 z" />
  <line
     id="line10-68-3"
     style="fill:#aaaaaa;stroke:#000000;stroke-width:2;stroke-miterlimit:0;stroke-dasharray:none"
     x2="9.724575"
     x1="9.724575"
     y2="17.085777"
     y1="26.152546" />
  <path
     style="fill:#000000;fill-opacity:1;fill-rule:nonzero;stroke:none"
     id="path3633-3-49-7"
     d="m 13.724576,25.84837 a 4,1.8542272 0 1 1 -7.9999992,0 4,1.8542272 0 1 1 7.9999992,0 z" />
  <line
     id="line10-68-3-8"
     style="fill:#aaaaaa;stroke:#000000;stroke-width:2;stroke-miterlimit:0;stroke-dasharray:none"
     x2="35.084743"
     x1="35.084743"
     y2="17.085777"
     y1="26.152546" />
  <path
     style="fill:#000000;fill-opacity:1;fill-rule:nonzero;stroke:none"
     id="path3633-3-49-7-9"
     d="m 39.084746,25.84837 a 4,1.8542272 0 1 1 -7.999999,0 4,1.8542272 0 1 1 7.999999,0 z" />
</svg>
