<?xml version="1.0" encoding="UTF-8" standalone="no"?>
<!-- Created with Inkscape (http://www.inkscape.org/) -->

<svg
   xmlns:dc="http://purl.org/dc/elements/1.1/"
   xmlns:cc="http://creativecommons.org/ns#"
   xmlns:rdf="http://www.w3.org/1999/02/22-rdf-syntax-ns#"
   xmlns:svg="http://www.w3.org/2000/svg"
   xmlns="http://www.w3.org/2000/svg"
   xmlns:sodipodi="http://sodipodi.sourceforge.net/DTD/sodipodi-0.dtd"
   xmlns:inkscape="http://www.inkscape.org/namespaces/inkscape"
   version="1.1"
   width="55.125"
   height="55"
   viewBox="0 0 55.125 55"
   id="svg4477"
   xml:space="preserve"
   inkscape:version="0.48.1 r9760"
   sodipodi:docname="abacus-list.svg"><sodipodi:namedview
     pagecolor="#ffffff"
     bordercolor="#666666"
     borderopacity="1"
     objecttolerance="10"
     gridtolerance="10"
     guidetolerance="10"
     inkscape:pageopacity="0"
     inkscape:pageshadow="2"
     inkscape:window-width="1280"
     inkscape:window-height="725"
     id="namedview32"
     showgrid="false"
     inkscape:zoom="4.7090909"
     inkscape:cx="27.5625"
     inkscape:cy="27.5"
     inkscape:window-x="0"
     inkscape:window-y="25"
     inkscape:window-maximized="1"
     inkscape:current-layer="svg4477" /><metadata
     id="metadata4486"><rdf:RDF><cc:Work
         rdf:about=""><dc:format>image/svg+xml</dc:format><dc:type
           rdf:resource="http://purl.org/dc/dcmitype/StillImage" /><dc:title /></cc:Work></rdf:RDF></metadata><defs
     id="defs4484">
	

		
		
		
		
		
		
			
		
	
			
				
			
		</defs><g
     transform="translate(-6.772267,9.116903)"
     id="g3789"><path
       d="m 15.719636,31.331478 0.114372,5.261133 11.437247,6.290486 L 27.5,29.387146"
       id="path2463"
       style="fill:none;stroke:#ffffff;stroke-width:2;stroke-linecap:butt;stroke-linejoin:round;stroke-miterlimit:4;stroke-opacity:1;stroke-dasharray:none"
       inkscape:connector-curvature="0" /><path
       d="m 27.728744,29.501519 0.05719,13.381578 11.723178,-7.548583 0,-4.689272 -5.947368,3.545548"
       id="path2465"
       style="fill:none;stroke:#ffffff;stroke-width:2;stroke-linecap:butt;stroke-linejoin:round;stroke-miterlimit:4;stroke-opacity:1;stroke-dasharray:none"
       inkscape:connector-curvature="0" /><path
       d="m 10.001012,27.328441 5.604251,-5.146761 -5.832996,-2.973684 12.123482,-7.091093 5.718623,3.316801 5.489879,-3.088056 12.123482,7.319838 -5.832996,2.401822 5.489878,5.032388 -11.322874,7.205466 -5.947369,-5.261134 -6.290485,5.261134 -11.322875,-6.976721 z"
       id="path2459"
       style="fill:none;stroke:#ffffff;stroke-width:2;stroke-linecap:butt;stroke-linejoin:miter;stroke-miterlimit:4;stroke-opacity:1;stroke-dasharray:none"
       inkscape:connector-curvature="0" /><path
       d="M 16.40587,21.952935 27.156883,15.204959 38.937247,22.067308 27.614372,28.815283 16.40587,21.952935 z"
       id="path2461"
       style="fill:none;stroke:#ffffff;stroke-width:2;stroke-linecap:butt;stroke-linejoin:miter;stroke-miterlimit:4;stroke-opacity:1;stroke-dasharray:none"
       inkscape:connector-curvature="0" /></g><g
     transform="matrix(0.4991468,0,0,0.4991468,32.247258,0.4207284)"
     id="g3954"><rect
       width="36.336506"
       height="36.768715"
       x="-40.359375"
       y="4.8685374"
       transform="matrix(0,-1,1,0,0,0)"
       id="rect4-6"
       style="fill:none;stroke:#ffffff;stroke-width:3.5;stroke-linejoin:round;stroke-miterlimit:1.60000002;stroke-opacity:1;stroke-dasharray:none" /><line
       y1="16.00807"
       y2="16.00807"
       x1="40.521584"
       x2="4.906013"
       style="fill:#aaaaaa;stroke:#ffffff;stroke-width:2.44068003;stroke-miterlimit:1.60000002;stroke-opacity:1;stroke-dasharray:none"
       id="line10-4-3" /><line
       y1="39.378502"
       y2="4.4511342"
       x1="23.062778"
       x2="23.062778"
       style="fill:#ffffff;fill-opacity:1;stroke:#ffffff;stroke-width:2.5;stroke-miterlimit:1.60000002;stroke-opacity:1;stroke-dasharray:none"
       id="line10-8" /><path
       d="m 27.530873,23.271165 a 4.4680964,3.0718163 0 1 1 -8.936192,0 4.4680964,3.0718163 0 1 1 8.936192,0 z"
       id="path3633-56"
       style="fill:#ffffff;fill-opacity:1;fill-rule:nonzero;stroke:none" /><path
       d="m 27.530873,29.41491 a 4.4680964,3.0718163 0 1 1 -8.936192,0 4.4680964,3.0718163 0 1 1 8.936192,0 z"
       id="path3633-7-1"
       style="fill:#ffffff;fill-opacity:1;fill-rule:nonzero;stroke:none" /><path
       d="m 27.530873,35.558654 a 4.4680964,3.0718163 0 1 1 -8.936192,0 4.4680964,3.0718163 0 1 1 8.936192,0 z"
       id="path3633-5-15"
       style="fill:#ffffff;fill-opacity:1;fill-rule:nonzero;stroke:none" /><path
       d="m 27.530873,8.8698857 a 4.4680964,3.0718163 0 1 1 -8.936192,0 4.4680964,3.0718163 0 1 1 8.936192,0 z"
       id="path3633-4-98"
       style="fill:#ffffff;fill-opacity:1;fill-rule:nonzero;stroke:none" /><line
       y1="39.378502"
       y2="4.4511342"
       x1="33.593018"
       x2="33.593018"
       style="fill:#ffffff;fill-opacity:1;stroke:#ffffff;stroke-width:2.5;stroke-miterlimit:1.60000002;stroke-opacity:1;stroke-dasharray:none"
       id="line10-2-4" /><path
       d="m 38.061108,23.271165 a 4.4680964,3.0718163 0 1 1 -8.936191,0 4.4680964,3.0718163 0 1 1 8.936191,0 z"
       id="path3633-47-8"
       style="fill:#ffffff;fill-opacity:1;fill-rule:nonzero;stroke:none" /><path
       d="m 38.061108,29.41491 a 4.4680964,3.0718163 0 1 1 -8.936191,0 4.4680964,3.0718163 0 1 1 8.936191,0 z"
       id="path3633-7-4-1"
       style="fill:#ffffff;fill-opacity:1;fill-rule:nonzero;stroke:none" /><path
       d="m 38.061108,35.558654 a 4.4680964,3.0718163 0 1 1 -8.936191,0 4.4680964,3.0718163 0 1 1 8.936191,0 z"
       id="path3633-5-4-0"
       style="fill:#ffffff;fill-opacity:1;fill-rule:nonzero;stroke:none" /><path
       d="m 38.061108,8.8698857 a 4.4680964,3.0718163 0 1 1 -8.936191,0 4.4680964,3.0718163 0 1 1 8.936191,0 z"
       id="path3633-4-0-3"
       style="fill:#ffffff;fill-opacity:1;fill-rule:nonzero;stroke:none" /><line
       y1="39.378502"
       y2="4.4511342"
       x1="12.532538"
       x2="12.532538"
       style="fill:#ffffff;fill-opacity:1;stroke:#ffffff;stroke-width:2.5;stroke-miterlimit:1.60000002;stroke-opacity:1;stroke-dasharray:none"
       id="line10-68-0" /><path
       d="m 17.000638,23.271165 a 4.4680964,3.0718163 0 1 1 -8.93619,0 4.4680964,3.0718163 0 1 1 8.93619,0 z"
       id="path3633-2-4"
       style="fill:#ffffff;fill-opacity:1;fill-rule:nonzero;stroke:none" /><path
       d="m 17.000638,29.41491 a 4.4680964,3.0718163 0 1 1 -8.93619,0 4.4680964,3.0718163 0 1 1 8.93619,0 z"
       id="path3633-7-6-4"
       style="fill:#ffffff;fill-opacity:1;fill-rule:nonzero;stroke:none" /><path
       d="m 17.000638,35.558654 a 4.4680964,3.0718163 0 1 1 -8.93619,0 4.4680964,3.0718163 0 1 1 8.93619,0 z"
       id="path3633-5-6-4"
       style="fill:#ffffff;fill-opacity:1;fill-rule:nonzero;stroke:none" /><path
       d="m 17.000638,8.8698857 a 4.4680964,3.0718163 0 1 1 -8.93619,0 4.4680964,3.0718163 0 1 1 8.93619,0 z"
       id="path3633-4-5-4"
       style="fill:#ffffff;fill-opacity:1;fill-rule:nonzero;stroke:none" /></g><g
     transform="matrix(0,-1,-1,0,27.652133,17.069121)"
     id="g3392"><line
       x1="9.1139202"
       x2="8.9199352"
       y1="-0.22708856"
       y2="13.735291"
       id="line5169"
       style="fill:none;stroke:#ffffff;stroke-width:3.5;stroke-linecap:round;stroke-linejoin:round;stroke-opacity:1" /><polyline
       transform="matrix(-0.5053552,0.4648229,-0.493202,-0.4762768,37.87494,-12.306659)"
       points="     51.562,15.306 41.17,16.188 42.053,5.794    "
       id="polyline5171"
       style="fill:none;stroke:#ffffff;stroke-width:5.1055975;stroke-linecap:round;stroke-linejoin:round;stroke-opacity:1" /><line
       x1="0.80086303"
       x2="8.835104"
       y1="13.639877"
       y2="13.833862"
       id="line4138"
       style="fill:none;stroke:#ffffff;stroke-width:3.5;stroke-linecap:round;stroke-linejoin:round;stroke-opacity:1" /></g></svg>