<?xml version="1.0" encoding="UTF-8" standalone="no"?>
<!-- Created with Inkscape (http://www.inkscape.org/) -->

<svg
   xmlns:dc="http://purl.org/dc/elements/1.1/"
   xmlns:cc="http://creativecommons.org/ns#"
   xmlns:rdf="http://www.w3.org/1999/02/22-rdf-syntax-ns#"
   xmlns:svg="http://www.w3.org/2000/svg"
   xmlns="http://www.w3.org/2000/svg"
   version="1.1"
   width="55.125"
   height="55"
   viewBox="0 0 55.125 55"
   id="svg4477"
   xml:space="preserve"><metadata
     id="metadata4486"><rdf:RDF><cc:Work
         rdf:about=""><dc:format>image/svg+xml</dc:format><dc:type
           rdf:resource="http://purl.org/dc/dcmitype/StillImage" /><dc:title></dc:title></cc:Work></rdf:RDF></metadata><defs
     id="defs4484" /><g
     transform="translate(-2.772267,7.116903)"
     id="g3789"><path
       d="m 15.719636,31.331478 0.114372,5.261133 11.437247,6.290486 L 27.5,29.387146"
       id="path2463"
       style="fill:none;stroke:#ffffff;stroke-width:2;stroke-linecap:butt;stroke-linejoin:round;stroke-miterlimit:4;stroke-opacity:1;stroke-dasharray:none" /><path
       d="m 27.728744,29.501519 0.05719,13.381578 11.723178,-7.548583 0,-4.689272 -5.947368,3.545548"
       id="path2465"
       style="fill:none;stroke:#ffffff;stroke-width:2;stroke-linecap:butt;stroke-linejoin:round;stroke-miterlimit:4;stroke-opacity:1;stroke-dasharray:none" /><path
       d="m 10.001012,27.328441 5.604251,-5.146761 -5.832996,-2.973684 12.123482,-7.091093 5.718623,3.316801 5.489879,-3.088056 12.123482,7.319838 -5.832996,2.401822 5.489878,5.032388 -11.322874,7.205466 -5.947369,-5.261134 -6.290485,5.261134 -11.322875,-6.976721 z"
       id="path2459"
       style="fill:none;stroke:#ffffff;stroke-width:2;stroke-linecap:butt;stroke-linejoin:miter;stroke-miterlimit:4;stroke-opacity:1;stroke-dasharray:none" /><path
       d="M 16.40587,21.952935 27.156883,15.204959 38.937247,22.067308 27.614372,28.815283 16.40587,21.952935 z"
       id="path2461"
       style="fill:none;stroke:#ffffff;stroke-width:2;stroke-linecap:butt;stroke-linejoin:miter;stroke-miterlimit:4;stroke-opacity:1;stroke-dasharray:none" /></g><g
     transform="matrix(0.49836779,0,0,0.49846526,32.809691,1.1798081)"
     id="g4356"><rect
       width="29.083258"
       height="28.668821"
       x="-37.04163"
       y="5.1097512"
       transform="matrix(0,-1,1,0,0,0)"
       id="rect4"
       style="fill:none;stroke:#ffffff;stroke-width:1.42943203;stroke-opacity:1" /><line
       id="line10-4"
       style="fill:#aaaaaa;stroke:#ffffff;stroke-width:1.42943203;stroke-opacity:1"
       x2="5.1321182"
       x1="33.756207"
       y2="15.988161"
       y1="15.988161" /><line
       id="line10"
       style="fill:#aaaaaa;stroke:#ffffff;stroke-width:1.42943203;stroke-miterlimit:0;stroke-opacity:1;stroke-dasharray:none"
       x2="15.969323"
       x1="15.969323"
       y2="9.475708"
       y1="35.52552" /><path
       d="m 18.63619,21.542669 a 2.6668671,2.10697 0 1 1 -5.333734,0 2.6668671,2.10697 0 1 1 5.333734,0 z"
       id="path3633"
       style="fill:#ffffff;fill-opacity:1;fill-rule:nonzero;stroke:#ffffff;stroke-width:0.71241933;stroke-opacity:1" /><path
       d="m 18.63619,25.756685 a 2.6668671,2.10697 0 1 1 -5.333734,0 2.6668671,2.10697 0 1 1 5.333734,0 z"
       id="path3633-7"
       style="fill:#ffffff;fill-opacity:1;fill-rule:nonzero;stroke:#ffffff;stroke-width:0.71241933;stroke-opacity:1" /><path
       d="m 18.63619,29.970702 a 2.6668671,2.10697 0 1 1 -5.333734,0 2.6668671,2.10697 0 1 1 5.333734,0 z"
       id="path3633-5"
       style="fill:#ffffff;fill-opacity:1;fill-rule:nonzero;stroke:#ffffff;stroke-width:0.71241933;stroke-opacity:1" /><path
       d="m 18.63619,34.184719 a 2.6668671,2.10697 0 1 1 -5.333734,0 2.6668671,2.10697 0 1 1 5.333734,0 z"
       id="path3633-3"
       style="fill:#ffffff;fill-opacity:1;fill-rule:nonzero;stroke:#ffffff;stroke-width:0.71241933;stroke-opacity:1" /><path
       d="m 18.63619,10.816507 a 2.6668671,2.10697 0 1 1 -5.333734,0 2.6668671,2.10697 0 1 1 5.333734,0 z"
       id="path3633-4"
       style="fill:#ffffff;fill-opacity:1;fill-rule:nonzero;stroke:#ffffff;stroke-width:0.71241933;stroke-opacity:1" /><line
       id="line10-2"
       style="fill:#aaaaaa;stroke:#ffffff;stroke-width:1.42943203;stroke-miterlimit:0;stroke-opacity:1;stroke-dasharray:none"
       x2="22.918999"
       x1="22.918999"
       y2="9.475708"
       y1="35.52552" /><path
       d="m 25.585865,21.542669 a 2.6668671,2.10697 0 1 1 -5.333734,0 2.6668671,2.10697 0 1 1 5.333734,0 z"
       id="path3633-47"
       style="fill:#ffffff;fill-opacity:1;fill-rule:nonzero;stroke:#ffffff;stroke-width:0.71241933;stroke-opacity:1" /><path
       d="m 25.585865,25.756685 a 2.6668671,2.10697 0 1 1 -5.333734,0 2.6668671,2.10697 0 1 1 5.333734,0 z"
       id="path3633-7-4"
       style="fill:#ffffff;fill-opacity:1;fill-rule:nonzero;stroke:#ffffff;stroke-width:0.71241933;stroke-opacity:1" /><path
       d="m 25.585865,29.970702 a 2.6668671,2.10697 0 1 1 -5.333734,0 2.6668671,2.10697 0 1 1 5.333734,0 z"
       id="path3633-5-4"
       style="fill:#ffffff;fill-opacity:1;fill-rule:nonzero;stroke:#ffffff;stroke-width:0.71241933;stroke-opacity:1" /><path
       d="m 25.585865,34.184719 a 2.6668671,2.10697 0 1 1 -5.333734,0 2.6668671,2.10697 0 1 1 5.333734,0 z"
       id="path3633-3-3"
       style="fill:#ffffff;fill-opacity:1;fill-rule:nonzero;stroke:#ffffff;stroke-width:0.71241933;stroke-opacity:1" /><path
       d="m 25.585865,10.816507 a 2.6668671,2.10697 0 1 1 -5.333734,0 2.6668671,2.10697 0 1 1 5.333734,0 z"
       id="path3633-4-0"
       style="fill:#ffffff;fill-opacity:1;fill-rule:nonzero;stroke:#ffffff;stroke-width:0.71241933;stroke-opacity:1" /><line
       id="line10-6"
       style="fill:#aaaaaa;stroke:#ffffff;stroke-width:1.42943203;stroke-miterlimit:0;stroke-opacity:1;stroke-dasharray:none"
       x2="29.868673"
       x1="29.868673"
       y2="9.475708"
       y1="35.52552" /><path
       d="m 32.53554,21.542669 a 2.6668671,2.10697 0 1 1 -5.333734,0 2.6668671,2.10697 0 1 1 5.333734,0 z"
       id="path3633-8"
       style="fill:#ffffff;fill-opacity:1;fill-rule:nonzero;stroke:#ffffff;stroke-width:0.71241933;stroke-opacity:1" /><path
       d="m 32.53554,25.756685 a 2.6668671,2.10697 0 1 1 -5.333734,0 2.6668671,2.10697 0 1 1 5.333734,0 z"
       id="path3633-7-43"
       style="fill:#ffffff;fill-opacity:1;fill-rule:nonzero;stroke:#ffffff;stroke-width:0.71241933;stroke-opacity:1" /><path
       d="m 32.53554,29.970702 a 2.6668671,2.10697 0 1 1 -5.333734,0 2.6668671,2.10697 0 1 1 5.333734,0 z"
       id="path3633-5-1"
       style="fill:#ffffff;fill-opacity:1;fill-rule:nonzero;stroke:#ffffff;stroke-width:0.71241933;stroke-opacity:1" /><path
       d="m 32.53554,34.184719 a 2.6668671,2.10697 0 1 1 -5.333734,0 2.6668671,2.10697 0 1 1 5.333734,0 z"
       id="path3633-3-4"
       style="fill:#ffffff;fill-opacity:1;fill-rule:nonzero;stroke:#ffffff;stroke-width:0.71241933;stroke-opacity:1" /><path
       d="m 32.53554,10.816507 a 2.6668671,2.10697 0 1 1 -5.333734,0 2.6668671,2.10697 0 1 1 5.333734,0 z"
       id="path3633-4-9"
       style="fill:#ffffff;fill-opacity:1;fill-rule:nonzero;stroke:#ffffff;stroke-width:0.71241933;stroke-opacity:1" /><line
       id="line10-68"
       style="fill:#aaaaaa;stroke:#ffffff;stroke-width:1.42943203;stroke-miterlimit:0;stroke-opacity:1;stroke-dasharray:none"
       x2="9.0196486"
       x1="9.0196486"
       y2="9.475708"
       y1="35.52552" /><path
       d="m 11.686516,21.542669 a 2.6668671,2.10697 0 1 1 -5.3337336,0 2.6668671,2.10697 0 1 1 5.3337336,0 z"
       id="path3633-2"
       style="fill:#ffffff;fill-opacity:1;fill-rule:nonzero;stroke:#ffffff;stroke-width:0.71241933;stroke-opacity:1" /><path
       d="m 11.686516,25.756685 a 2.6668671,2.10697 0 1 1 -5.3337336,0 2.6668671,2.10697 0 1 1 5.3337336,0 z"
       id="path3633-7-6"
       style="fill:#ffffff;fill-opacity:1;fill-rule:nonzero;stroke:#ffffff;stroke-width:0.71241933;stroke-opacity:1" /><path
       d="m 11.686516,29.970702 a 2.6668671,2.10697 0 1 1 -5.3337336,0 2.6668671,2.10697 0 1 1 5.3337336,0 z"
       id="path3633-5-6"
       style="fill:#ffffff;fill-opacity:1;fill-rule:nonzero;stroke:#ffffff;stroke-width:0.71241933;stroke-opacity:1" /><path
       d="m 11.686516,34.184719 a 2.6668671,2.10697 0 1 1 -5.3337336,0 2.6668671,2.10697 0 1 1 5.3337336,0 z"
       id="path3633-3-49"
       style="fill:#ffffff;fill-opacity:1;fill-rule:nonzero;stroke:#ffffff;stroke-width:0.71241933;stroke-opacity:1" /><path
       d="m 11.686516,10.816507 a 2.6668671,2.10697 0 1 1 -5.3337336,0 2.6668671,2.10697 0 1 1 5.3337336,0 z"
       id="path3633-4-5"
       style="fill:#ffffff;fill-opacity:1;fill-rule:nonzero;stroke:#ffffff;stroke-width:0.71241933;stroke-opacity:1" /></g></svg>