<?xml version="1.0" encoding="UTF-8" standalone="no"?>
<!-- Created with Inkscape (http://www.inkscape.org/) -->

<svg
   xmlns:dc="http://purl.org/dc/elements/1.1/"
   xmlns:cc="http://creativecommons.org/ns#"
   xmlns:rdf="http://www.w3.org/1999/02/22-rdf-syntax-ns#"
   xmlns:svg="http://www.w3.org/2000/svg"
   xmlns="http://www.w3.org/2000/svg"
   version="1.1"
   width="55.125"
   height="55"
   viewBox="0 0 55.125 55"
   id="svg4477"
   xml:space="preserve"><metadata
     id="metadata4486"><rdf:RDF><cc:Work
         rdf:about=""><dc:format>image/svg+xml</dc:format><dc:type
           rdf:resource="http://purl.org/dc/dcmitype/StillImage" /><dc:title></dc:title></cc:Work></rdf:RDF></metadata><defs
     id="defs4484">
	

		
		
		
		
		
		
			
		
	
			
				
			
		</defs><g
     transform="matrix(1.08,0,0,1.08,-4.2400002,-0.1600003)"
     id="g3795"><rect
       width="22.558769"
       height="22.827097"
       x="-25.913549"
       y="29.086451"
       transform="matrix(0,-1,1,0,0,0)"
       id="rect4-6"
       style="fill:none;stroke:#ffffff;stroke-width:2.17290282;stroke-linejoin:round;stroke-miterlimit:1.60000002;stroke-opacity:1;stroke-dasharray:none" /><line
       y1="10.795544"
       y2="10.795544"
       x1="51.220909"
       x2="29.109716"
       style="fill:#aaaaaa;stroke:#ffffff;stroke-width:1.5152458;stroke-miterlimit:1.60000002;stroke-opacity:1;stroke-dasharray:none"
       id="line10-4-3" /><line
       y1="25.304594"
       y2="3.6206589"
       x1="40.381969"
       x2="40.381969"
       style="fill:#ffffff;fill-opacity:1;stroke:#ffffff;stroke-width:1.55207336;stroke-miterlimit:1.60000002;stroke-opacity:1;stroke-dasharray:none"
       id="line10-8" /><path
       d="m 43.155894,15.304686 a 2.7739254,1.9070737 0 1 1 -5.54785,0 2.7739254,1.9070737 0 1 1 5.54785,0 z"
       id="path3633-56"
       style="fill:#ffffff;fill-opacity:1;fill-rule:nonzero;stroke:none" /><path
       d="m 43.155894,19.118904 a 2.7739254,1.9070737 0 1 1 -5.54785,0 2.7739254,1.9070737 0 1 1 5.54785,0 z"
       id="path3633-7-1"
       style="fill:#ffffff;fill-opacity:1;fill-rule:nonzero;stroke:none" /><path
       d="m 43.155894,22.93312 a 2.7739254,1.9070737 0 1 1 -5.54785,0 2.7739254,1.9070737 0 1 1 5.54785,0 z"
       id="path3633-5-15"
       style="fill:#ffffff;fill-opacity:1;fill-rule:nonzero;stroke:none" /><path
       d="m 43.155894,6.3639495 a 2.7739254,1.9070737 0 1 1 -5.54785,0 2.7739254,1.9070737 0 1 1 5.54785,0 z"
       id="path3633-4-98"
       style="fill:#ffffff;fill-opacity:1;fill-rule:nonzero;stroke:none" /><line
       y1="25.304594"
       y2="3.6206589"
       x1="46.919453"
       x2="46.919453"
       style="fill:#ffffff;fill-opacity:1;stroke:#ffffff;stroke-width:1.55207336;stroke-miterlimit:1.60000002;stroke-opacity:1;stroke-dasharray:none"
       id="line10-2-4" /><path
       d="m 49.693373,15.304686 a 2.7739254,1.9070737 0 1 1 -5.54785,0 2.7739254,1.9070737 0 1 1 5.54785,0 z"
       id="path3633-47-8"
       style="fill:#ffffff;fill-opacity:1;fill-rule:nonzero;stroke:none" /><path
       d="m 49.693373,19.118904 a 2.7739254,1.9070737 0 1 1 -5.54785,0 2.7739254,1.9070737 0 1 1 5.54785,0 z"
       id="path3633-7-4-1"
       style="fill:#ffffff;fill-opacity:1;fill-rule:nonzero;stroke:none" /><path
       d="m 49.693373,22.93312 a 2.7739254,1.9070737 0 1 1 -5.54785,0 2.7739254,1.9070737 0 1 1 5.54785,0 z"
       id="path3633-5-4-0"
       style="fill:#ffffff;fill-opacity:1;fill-rule:nonzero;stroke:none" /><path
       d="m 49.693373,6.3639495 a 2.7739254,1.9070737 0 1 1 -5.54785,0 2.7739254,1.9070737 0 1 1 5.54785,0 z"
       id="path3633-4-0-3"
       style="fill:#ffffff;fill-opacity:1;fill-rule:nonzero;stroke:none" /><line
       y1="25.304594"
       y2="3.6206589"
       x1="33.844486"
       x2="33.844486"
       style="fill:#ffffff;fill-opacity:1;stroke:#ffffff;stroke-width:1.55207336;stroke-miterlimit:1.60000002;stroke-opacity:1;stroke-dasharray:none"
       id="line10-68-0" /><path
       d="m 36.618415,15.304686 a 2.7739254,1.9070737 0 1 1 -5.547849,0 2.7739254,1.9070737 0 1 1 5.547849,0 z"
       id="path3633-2-4"
       style="fill:#ffffff;fill-opacity:1;fill-rule:nonzero;stroke:none" /><path
       d="m 36.618415,19.118904 a 2.7739254,1.9070737 0 1 1 -5.547849,0 2.7739254,1.9070737 0 1 1 5.547849,0 z"
       id="path3633-7-6-4"
       style="fill:#ffffff;fill-opacity:1;fill-rule:nonzero;stroke:none" /><path
       d="m 36.618415,22.93312 a 2.7739254,1.9070737 0 1 1 -5.547849,0 2.7739254,1.9070737 0 1 1 5.547849,0 z"
       id="path3633-5-6-4"
       style="fill:#ffffff;fill-opacity:1;fill-rule:nonzero;stroke:none" /><path
       d="m 36.618415,6.3639495 a 2.7739254,1.9070737 0 1 1 -5.547849,0 2.7739254,1.9070737 0 1 1 5.547849,0 z"
       id="path3633-4-5-4"
       style="fill:#ffffff;fill-opacity:1;fill-rule:nonzero;stroke:none" /></g><g
     transform="translate(4.177924,7.7652065)"
     id="g3868"
     style="stroke:#ffffff;stroke-width:2.5;stroke-miterlimit:4;stroke-opacity:1;stroke-dasharray:none"><path
       d="m 10.891798,22.615055 c 0.412822,-4.213333 3.118985,-8.878057 7.551676,-9.730009"
       id="path3847"
       style="fill:none;stroke:#ffffff;stroke-width:2.5;stroke-linecap:round;stroke-linejoin:miter;stroke-miterlimit:4;stroke-opacity:1;stroke-dasharray:none" /><path
       d="M 18.443444,12.15893 11.472693,11.723258"
       id="path3864"
       style="fill:none;stroke:#ffffff;stroke-width:2.5;stroke-linecap:round;stroke-linejoin:miter;stroke-miterlimit:4;stroke-opacity:1;stroke-dasharray:none" /><path
       d="m 18.443444,13.030274 -0.72612,5.082838"
       id="path3866"
       style="fill:none;stroke:#ffffff;stroke-width:2.5;stroke-linecap:round;stroke-linejoin:miter;stroke-miterlimit:4;stroke-opacity:1;stroke-dasharray:none" /></g><path
     d="M 12.905089,39.465727 12.619612,33.411473 M 38.613483,51.483315 3.4259824,51.75 3.25,39.758909 l 9.34656,-6.358972 33.95563,0 -0.175983,12.124479 z M 3.4259824,39.892252 37.73357,40.158937 38.261517,51.083285 m -0.48946,-11.052012 8.834981,-6.638311"
     id="path3806"
     style="fill:none;stroke:#ffffff;stroke-width:2.5;stroke-linecap:butt;stroke-linejoin:miter;stroke-miterlimit:4;stroke-opacity:1;stroke-dasharray:none;stroke-dashoffset:0" /></svg>