<?xml version="1.0" encoding="UTF-8" standalone="no"?>
<svg
   xmlns:dc="http://purl.org/dc/elements/1.1/"
   xmlns:cc="http://creativecommons.org/ns#"
   xmlns:rdf="http://www.w3.org/1999/02/22-rdf-syntax-ns#"
   xmlns:svg="http://www.w3.org/2000/svg"
   xmlns="http://www.w3.org/2000/svg"
   id="svg2"
   height="45"
   width="45"
   version="1.1">
  <metadata
     id="metadata25">
    <rdf:RDF>
      <cc:Work
         rdf:about="">
        <dc:format>image/svg+xml</dc:format>
        <dc:type
           rdf:resource="http://purl.org/dc/dcmitype/StillImage" />
        <dc:title></dc:title>
      </cc:Work>
    </rdf:RDF>
  </metadata>
  <defs
     id="defs41" />
  <rect
     style="fill:#ffffff;fill-opacity:1;stroke:#000000;stroke-width:2"
     id="rect4"
     transform="matrix(0,-1,1,0,0,0)"
     y="1"
     x="-41.479614"
     height="43"
     width="37.959229" />
  <line
     id="line10-68"
     style="fill:#aaaaaa;stroke:#000000;stroke-width:2;stroke-miterlimit:0;stroke-dasharray:none"
     x2="22.5"
     x1="22.5"
     y2="5.5"
     y1="39.5" />
  <g
     id="g2866"
     transform="translate(0,-11.130558)">
    <path
       style="fill:#000000;fill-opacity:1;fill-rule:nonzero;stroke:none"
       id="path3633-2"
       d="m 26.5,28.065287 a 4,1.8542272 0 1 1 -7.999999,0 4,1.8542272 0 1 1 7.999999,0 z" />
    <path
       style="fill:#000000;fill-opacity:1;fill-rule:nonzero;stroke:none"
       id="path3633-7-6"
       d="m 26.5,31.775467 a 4,1.8542272 0 1 1 -7.999999,0 4,1.8542272 0 1 1 7.999999,0 z" />
    <path
       style="fill:#000000;fill-opacity:1;fill-rule:nonzero;stroke:none"
       id="path3633-5-6"
       d="m 26.5,35.485647 a 4,1.8542272 0 1 1 -7.999999,0 4,1.8542272 0 1 1 7.999999,0 z" />
    <path
       style="fill:#000000;fill-opacity:1;fill-rule:nonzero;stroke:none"
       id="path3633-3-49"
       d="m 26.5,39.195828 a 4,1.8542272 0 1 1 -7.999999,0 4,1.8542272 0 1 1 7.999999,0 z" />
  </g>
  <line
     id="line10-68-3"
     style="fill:#aaaaaa;stroke:#000000;stroke-width:2;stroke-miterlimit:0;stroke-dasharray:none"
     x2="9.724575"
     x1="9.724575"
     y2="5.4999976"
     y1="39.500004" />
  <g
     id="g2854"
     transform="translate(0,-12.985647)">
    <path
       style="fill:#000000;fill-opacity:1;fill-rule:nonzero;stroke:none"
       id="path3633-7-6-5"
       d="m 13.724576,31.775467 a 4,1.8542272 0 1 1 -7.9999992,0 4,1.8542272 0 1 1 7.9999992,0 z" />
    <path
       style="fill:#000000;fill-opacity:1;fill-rule:nonzero;stroke:none"
       id="path3633-5-6-4"
       d="m 13.724576,35.485647 a 4,1.8542272 0 1 1 -7.9999992,0 4,1.8542272 0 1 1 7.9999992,0 z" />
    <path
       style="fill:#000000;fill-opacity:1;fill-rule:nonzero;stroke:none"
       id="path3633-3-49-7"
       d="m 13.724576,39.195828 a 4,1.8542272 0 1 1 -7.9999992,0 4,1.8542272 0 1 1 7.9999992,0 z" />
  </g>
  <line
     id="line10-68-3-8"
     style="fill:#aaaaaa;stroke:#000000;stroke-width:2;stroke-miterlimit:0;stroke-dasharray:none"
     x2="35.084743"
     x1="35.084743"
     y2="5.4999976"
     y1="39.500004" />
  <g
     id="g2859"
     transform="translate(0,-9.275467)">
    <path
       style="fill:#000000;fill-opacity:1;fill-rule:nonzero;stroke:none"
       id="path3633-2-2-3"
       d="m 39.084746,28.065287 a 4,1.8542272 0 1 1 -7.999999,0 4,1.8542272 0 1 1 7.999999,0 z" />
    <path
       style="fill:#000000;fill-opacity:1;fill-rule:nonzero;stroke:none"
       id="path3633-7-6-5-1"
       d="m 39.084746,31.775467 a 4,1.8542272 0 1 1 -7.999999,0 4,1.8542272 0 1 1 7.999999,0 z" />
    <path
       style="fill:#000000;fill-opacity:1;fill-rule:nonzero;stroke:none"
       id="path3633-5-6-4-4"
       d="m 39.084746,35.485647 a 4,1.8542272 0 1 1 -7.999999,0 4,1.8542272 0 1 1 7.999999,0 z" />
    <path
       style="fill:#000000;fill-opacity:1;fill-rule:nonzero;stroke:none"
       id="path3633-3-49-7-9"
       d="m 39.084746,39.195828 a 4,1.8542272 0 1 1 -7.999999,0 4,1.8542272 0 1 1 7.999999,0 z" />
    <path
       style="fill:#000000;fill-opacity:1;fill-rule:nonzero;stroke:none"
       id="path3633-4-5-4-2"
       d="m 39.084746,24.355106 a 4,1.8542272 0 1 1 -7.999999,0 4,1.8542272 0 1 1 7.999999,0 z" />
  </g>
</svg>
