<?xml version="1.0" encoding="UTF-8" standalone="no"?>
<!-- Created with Inkscape (http://www.inkscape.org/) -->

<svg
   xmlns:svg="http://www.w3.org/2000/svg"
   xmlns="http://www.w3.org/2000/svg"
   version="1.1"
   width="45"
   height="45"
   id="svg2">
  <defs
     id="defs41" />
  <rect
     width="37.959229"
     height="43"
     x="-41.479614"
     y="1"
     transform="matrix(0,-1,1,0,0,0)"
     id="rect4"
     style="fill:#aaaaaa;fill-opacity:1;stroke:#000000;stroke-width:2" />
  <line
     y1="10.5"
     y2="10.5"
     x1="44.18692"
     x2="1.2540125"
     style="fill:#ffffff;fill-opacity:1;stroke:#000000;stroke-width:2"
     id="line10-4" />
  <line
     y1="40.67247"
     y2="4.327529"
     x1="6.7392497"
     x2="6.7392497"
     style="fill:#aaaaaa;stroke:#000000;stroke-width:2;stroke-miterlimit:0;stroke-dasharray:none"
     id="line10-68" />
  <path
     d="m 10.7393,26.813926 a 4,1.9646672 0 0 1 -8,0 4,1.9646672 0 1 1 8,0 z"
     id="path3633-2"
     style="fill:#000000;fill-opacity:1;fill-rule:nonzero;stroke:none" />
  <path
     d="m 10.7393,30.743361 a 4,1.9646672 0 0 1 -8,0 4,1.9646672 0 1 1 8,0 z"
     id="path3633-7-6"
     style="fill:#000000;fill-opacity:1;fill-rule:nonzero;stroke:none" />
  <path
     d="m 10.7393,34.672795 a 4,1.9646672 0 0 1 -8,0 4,1.9646672 0 1 1 8,0 z"
     id="path3633-5-6"
     style="fill:#000000;fill-opacity:1;fill-rule:nonzero;stroke:none" />
  <path
     d="m 10.7393,38.60223 a 4,1.9646672 0 0 1 -8,0 4,1.9646672 0 1 1 8,0 z"
     id="path3633-3-49"
     style="fill:#000000;fill-opacity:1;fill-rule:nonzero;stroke:none" />
  <path
     d="m 10.73925,6.1727809 a 4,1.9646672 0 0 1 -8,0 4,1.9646672 0 1 1 8,0 z"
     id="path3633-2-7"
     style="fill:#000000;fill-opacity:1;fill-rule:nonzero;stroke:none" />
  <path
     d="m 10.7393,18.880217 a 4,1.9646672 0 0 1 -8,0 4,1.9646672 0 1 1 8,0 z"
     id="path3633-7-6-6"
     style="fill:#000000;fill-opacity:1;fill-rule:nonzero;stroke:none" />
  <path
     d="m 10.7393,22.883293 a 4,1.9646672 0 0 1 -8,0 4,1.9646672 0 1 1 8,0 z"
     id="path3633-3-49-6"
     style="fill:#000000;fill-opacity:1;fill-rule:nonzero;stroke:none" />
  <line
     y1="40.67247"
     y2="4.327529"
     x1="17.187927"
     x2="17.187927"
     style="fill:#aaaaaa;stroke:#000000;stroke-width:2;stroke-miterlimit:0;stroke-dasharray:none"
     id="line10-68-3" />
  <path
     d="m 21.187977,26.813926 a 4,1.9646672 0 0 1 -8,0 4,1.9646672 0 1 1 8,0 z"
     id="path3633-2-74"
     style="fill:#000000;fill-opacity:1;fill-rule:nonzero;stroke:none" />
  <path
     d="m 21.187977,30.743361 a 4,1.9646672 0 0 1 -8,0 4,1.9646672 0 1 1 8,0 z"
     id="path3633-7-6-5"
     style="fill:#000000;fill-opacity:1;fill-rule:nonzero;stroke:none" />
  <path
     d="m 21.187977,34.672795 a 4,1.9646672 0 0 1 -8,0 4,1.9646672 0 1 1 8,0 z"
     id="path3633-5-6-2"
     style="fill:#000000;fill-opacity:1;fill-rule:nonzero;stroke:none" />
  <path
     d="m 21.187977,38.60223 a 4,1.9646672 0 0 1 -8,0 4,1.9646672 0 1 1 8,0 z"
     id="path3633-3-49-5"
     style="fill:#000000;fill-opacity:1;fill-rule:nonzero;stroke:none" />
  <path
     d="m 21.187927,6.1727809 a 4,1.9646672 0 0 1 -8,0 4,1.9646672 0 1 1 8,0 z"
     id="path3633-2-7-4"
     style="fill:#000000;fill-opacity:1;fill-rule:nonzero;stroke:none" />
  <path
     d="m 21.187977,18.880217 a 4,1.9646672 0 0 1 -8,0 4,1.9646672 0 1 1 8,0 z"
     id="path3633-7-6-6-7"
     style="fill:#000000;fill-opacity:1;fill-rule:nonzero;stroke:none" />
  <path
     d="m 21.187977,22.883293 a 4,1.9646672 0 0 1 -8,0 4,1.9646672 0 1 1 8,0 z"
     id="path3633-3-49-6-4"
     style="fill:#000000;fill-opacity:1;fill-rule:nonzero;stroke:none" />
  <line
     y1="40.67247"
     y2="4.327529"
     x1="27.636602"
     x2="27.636602"
     style="fill:#aaaaaa;stroke:#000000;stroke-width:2;stroke-miterlimit:0;stroke-dasharray:none"
     id="line10-68-0" />
  <path
     d="m 31.636653,26.813926 a 4,1.9646672 0 0 1 -8,0 4,1.9646672 0 1 1 8,0 z"
     id="path3633-2-78"
     style="fill:#000000;fill-opacity:1;fill-rule:nonzero;stroke:none" />
  <path
     d="m 31.636653,30.743361 a 4,1.9646672 0 0 1 -8,0 4,1.9646672 0 1 1 8,0 z"
     id="path3633-7-6-68"
     style="fill:#000000;fill-opacity:1;fill-rule:nonzero;stroke:none" />
  <path
     d="m 31.636653,34.672795 a 4,1.9646672 0 0 1 -8,0 4,1.9646672 0 1 1 8,0 z"
     id="path3633-5-6-8"
     style="fill:#000000;fill-opacity:1;fill-rule:nonzero;stroke:none" />
  <path
     d="m 31.636653,38.60223 a 4,1.9646672 0 0 1 -8,0 4,1.9646672 0 1 1 8,0 z"
     id="path3633-3-49-4"
     style="fill:#000000;fill-opacity:1;fill-rule:nonzero;stroke:none" />
  <path
     d="m 31.636603,6.1727809 a 4,1.9646672 0 0 1 -8,0 4,1.9646672 0 1 1 8,0 z"
     id="path3633-2-7-3"
     style="fill:#000000;fill-opacity:1;fill-rule:nonzero;stroke:none" />
  <path
     d="m 31.636653,18.880217 a 4,1.9646672 0 0 1 -8,0 4,1.9646672 0 1 1 8,0 z"
     id="path3633-7-6-6-1"
     style="fill:#000000;fill-opacity:1;fill-rule:nonzero;stroke:none" />
  <path
     d="m 31.636653,22.883293 a 4,1.9646672 0 0 1 -8,0 4,1.9646672 0 1 1 8,0 z"
     id="path3633-3-49-6-49"
     style="fill:#000000;fill-opacity:1;fill-rule:nonzero;stroke:none" />
  <line
     y1="40.67247"
     y2="4.327529"
     x1="38.085278"
     x2="38.085278"
     style="fill:#aaaaaa;stroke:#000000;stroke-width:2;stroke-miterlimit:0;stroke-dasharray:none"
     id="line10-68-6" />
  <path
     d="m 42.085328,26.813926 a 4,1.9646672 0 0 1 -8,0 4,1.9646672 0 1 1 8,0 z"
     id="path3633-2-8"
     style="fill:#000000;fill-opacity:1;fill-rule:nonzero;stroke:none" />
  <path
     d="m 42.085328,30.743361 a 4,1.9646672 0 0 1 -8,0 4,1.9646672 0 1 1 8,0 z"
     id="path3633-7-6-9"
     style="fill:#000000;fill-opacity:1;fill-rule:nonzero;stroke:none" />
  <path
     d="m 42.085328,34.672795 a 4,1.9646672 0 0 1 -8,0 4,1.9646672 0 1 1 8,0 z"
     id="path3633-5-6-26"
     style="fill:#000000;fill-opacity:1;fill-rule:nonzero;stroke:none" />
  <path
     d="m 42.085328,38.60223 a 4,1.9646672 0 0 1 -8,0 4,1.9646672 0 1 1 8,0 z"
     id="path3633-3-49-64"
     style="fill:#000000;fill-opacity:1;fill-rule:nonzero;stroke:none" />
  <path
     d="m 42.085278,6.1727809 a 4,1.9646672 0 0 1 -8,0 4,1.9646672 0 1 1 8,0 z"
     id="path3633-2-7-9"
     style="fill:#000000;fill-opacity:1;fill-rule:nonzero;stroke:none" />
  <path
     d="m 42.085328,18.880217 a 4,1.9646672 0 0 1 -8,0 4,1.9646672 0 1 1 8,0 z"
     id="path3633-7-6-6-5"
     style="fill:#000000;fill-opacity:1;fill-rule:nonzero;stroke:none" />
  <path
     d="m 42.085328,22.883293 a 4,1.9646672 0 0 1 -8,0 4,1.9646672 0 1 1 8,0 z"
     id="path3633-3-49-6-0"
     style="fill:#000000;fill-opacity:1;fill-rule:nonzero;stroke:none" />
  <path
     d="m 10.636358,14.950783 a 4.0000001,1.9646673 0 0 1 -8.0000003,0 4.0000001,1.9646673 0 1 1 8.0000003,0 z"
     id="path3633-7-6-6-2"
     style="fill:#000000;fill-opacity:1;fill-rule:nonzero;stroke:none" />
  <path
     d="m 21.085035,14.950783 a 4,1.9646672 0 0 1 -8,0 4,1.9646672 0 1 1 8,0 z"
     id="path3633-7-6-6-7-5"
     style="fill:#000000;fill-opacity:1;fill-rule:nonzero;stroke:none" />
  <path
     d="m 31.533711,14.950783 a 4,1.9646672 0 0 1 -8,0 4,1.9646672 0 1 1 8,0 z"
     id="path3633-7-6-6-1-4"
     style="fill:#000000;fill-opacity:1;fill-rule:nonzero;stroke:none" />
  <path
     d="m 41.982386,14.950783 a 4,1.9646672 0 0 1 -8,0 4,1.9646672 0 1 1 8,0 z"
     id="path3633-7-6-6-5-7"
     style="fill:#000000;fill-opacity:1;fill-rule:nonzero;stroke:none" />
  <text
     x="6.6621094"
     y="31.236328"
     id="text2852"
     xml:space="preserve"
     style="font-size:40px;font-style:normal;font-weight:normal;line-height:125%;fill:#ffffff;fill-opacity:1;stroke:none;font-family:Bitstream Vera Sans"><tspan
       x="6.6621094"
       y="31.236328"
       id="tspan2854"
       style="font-size:24px;font-style:normal;font-variant:normal;font-weight:normal;font-stretch:normal;text-align:start;line-height:125%;writing-mode:lr-tb;text-anchor:start;fill:#ffffff;fill-opacity:1;font-family:DejaVu Sans;-inkscape-font-specification:DejaVu Sans">16</tspan></text>
</svg>
