<?xml version="1.0" encoding="UTF-8" standalone="no"?>
<!-- Created with Inkscape (http://www.inkscape.org/) -->

<svg
   xmlns:svg="http://www.w3.org/2000/svg"
   xmlns="http://www.w3.org/2000/svg"
   version="1.1"
   width="45"
   height="45"
   id="svg2">
  <defs
     id="defs41" />
  <rect
     width="37.959229"
     height="43"
     x="-41.479614"
     y="1"
     transform="matrix(0,-1,1,0,0,0)"
     id="rect4"
     style="fill:#ffffff;fill-opacity:1;stroke:#000000;stroke-width:2" />
  <line
     y1="20.5"
     y2="20.5"
     x1="44.18692"
     x2="1.2540125"
     style="fill:#aaaaaa;stroke:#000000;stroke-width:2"
     id="line10-4" />
  <line
     y1="40.67247"
     y2="4.327529"
     x1="6.7392497"
     x2="6.7392497"
     style="fill:#aaaaaa;stroke:#000000;stroke-width:2;stroke-miterlimit:0;stroke-dasharray:none"
     id="line10-68" />
  <path
     d="m 10.73925,26.813969 a 4,1.9646672 0 0 1 -8,0 4,1.9646672 0 1 1 8,0 z"
     id="path3633-2"
     style="fill:#000000;fill-opacity:1;fill-rule:nonzero;stroke:none" />
  <path
     d="m 10.73925,30.743375 a 4,1.9646672 0 0 1 -8,0 4,1.9646672 0 1 1 8,0 z"
     id="path3633-7-6"
     style="fill:#000000;fill-opacity:1;fill-rule:nonzero;stroke:none" />
  <path
     d="m 10.73925,34.672781 a 4,1.9646672 0 0 1 -8,0 4,1.9646672 0 1 1 8,0 z"
     id="path3633-5-6"
     style="fill:#000000;fill-opacity:1;fill-rule:nonzero;stroke:none" />
  <path
     d="m 10.73925,38.602187 a 4,1.9646672 0 0 1 -8,0 4,1.9646672 0 1 1 8,0 z"
     id="path3633-3-49"
     style="fill:#000000;fill-opacity:1;fill-rule:nonzero;stroke:none" />
  <line
     y1="40.67247"
     y2="4.327529"
     x1="17.187927"
     x2="17.187927"
     style="fill:#aaaaaa;stroke:#000000;stroke-width:2;stroke-miterlimit:0;stroke-dasharray:none"
     id="line10-68-3" />
  <path
     d="m 21.187927,26.813969 a 4,1.9646672 0 0 1 -8,0 4,1.9646672 0 1 1 8,0 z"
     id="path3633-2-74"
     style="fill:#000000;fill-opacity:1;fill-rule:nonzero;stroke:none" />
  <path
     d="m 21.187927,30.743375 a 4,1.9646672 0 0 1 -8,0 4,1.9646672 0 1 1 8,0 z"
     id="path3633-7-6-5"
     style="fill:#000000;fill-opacity:1;fill-rule:nonzero;stroke:none" />
  <path
     d="m 21.187927,34.672781 a 4,1.9646672 0 0 1 -8,0 4,1.9646672 0 1 1 8,0 z"
     id="path3633-5-6-2"
     style="fill:#000000;fill-opacity:1;fill-rule:nonzero;stroke:none" />
  <path
     d="m 21.187927,38.602187 a 4,1.9646672 0 0 1 -8,0 4,1.9646672 0 1 1 8,0 z"
     id="path3633-3-49-5"
     style="fill:#000000;fill-opacity:1;fill-rule:nonzero;stroke:none" />
  <line
     y1="40.67247"
     y2="4.327529"
     x1="27.636602"
     x2="27.636602"
     style="fill:#aaaaaa;stroke:#000000;stroke-width:2;stroke-miterlimit:0;stroke-dasharray:none"
     id="line10-68-0" />
  <path
     d="m 31.636603,26.813969 a 4,1.9646672 0 0 1 -8,0 4,1.9646672 0 1 1 8,0 z"
     id="path3633-2-78"
     style="fill:#000000;fill-opacity:1;fill-rule:nonzero;stroke:none" />
  <path
     d="m 31.636603,30.743375 a 4,1.9646672 0 0 1 -8,0 4,1.9646672 0 1 1 8,0 z"
     id="path3633-7-6-68"
     style="fill:#000000;fill-opacity:1;fill-rule:nonzero;stroke:none" />
  <path
     d="m 31.636603,34.672781 a 4,1.9646672 0 0 1 -8,0 4,1.9646672 0 1 1 8,0 z"
     id="path3633-5-6-8"
     style="fill:#000000;fill-opacity:1;fill-rule:nonzero;stroke:none" />
  <path
     d="m 31.636603,38.602187 a 4,1.9646672 0 0 1 -8,0 4,1.9646672 0 1 1 8,0 z"
     id="path3633-3-49-4"
     style="fill:#000000;fill-opacity:1;fill-rule:nonzero;stroke:none" />
  <line
     y1="40.67247"
     y2="4.327529"
     x1="38.085278"
     x2="38.085278"
     style="fill:#aaaaaa;stroke:#000000;stroke-width:2;stroke-miterlimit:0;stroke-dasharray:none"
     id="line10-68-6" />
  <path
     d="m 42.085278,26.813969 a 4,1.9646672 0 0 1 -8,0 4,1.9646672 0 1 1 8,0 z"
     id="path3633-2-8"
     style="fill:#000000;fill-opacity:1;fill-rule:nonzero;stroke:none" />
  <path
     d="m 42.085278,30.743375 a 4,1.9646672 0 0 1 -8,0 4,1.9646672 0 1 1 8,0 z"
     id="path3633-7-6-9"
     style="fill:#000000;fill-opacity:1;fill-rule:nonzero;stroke:none" />
  <path
     d="m 42.085278,34.672781 a 4,1.9646672 0 0 1 -8,0 4,1.9646672 0 1 1 8,0 z"
     id="path3633-5-6-26"
     style="fill:#000000;fill-opacity:1;fill-rule:nonzero;stroke:none" />
  <path
     d="m 42.085278,38.602187 a 4,1.9646672 0 0 1 -8,0 4,1.9646672 0 1 1 8,0 z"
     id="path3633-3-49-64"
     style="fill:#000000;fill-opacity:1;fill-rule:nonzero;stroke:none" />
  <g
     transform="translate(0,0.3864778)"
     id="g2884">
    <path
       d="m 10.7393,5.7899859 a 4,1.9646672 0 0 1 -8,0 4,1.9646672 0 1 1 8,0 z"
       id="path3633-2-7"
       style="fill:#000000;fill-opacity:1;fill-rule:nonzero;stroke:none" />
    <path
       d="m 10.7393,9.7194203 a 4,1.9646672 0 0 1 -8,0 4,1.9646672 0 1 1 8,0 z"
       id="path3633-7-6-6"
       style="fill:#000000;fill-opacity:1;fill-rule:nonzero;stroke:none" />
    <path
       d="m 10.7393,13.648855 a 4,1.9646672 0 0 1 -8,0 4,1.9646672 0 1 1 8,0 z"
       id="path3633-3-49-6"
       style="fill:#000000;fill-opacity:1;fill-rule:nonzero;stroke:none" />
    <path
       d="m 21.187977,5.7899859 a 4,1.9646672 0 0 1 -8,0 4,1.9646672 0 1 1 8,0 z"
       id="path3633-2-7-4"
       style="fill:#000000;fill-opacity:1;fill-rule:nonzero;stroke:none" />
    <path
       d="m 21.187977,9.7194203 a 4,1.9646672 0 0 1 -8,0 4,1.9646672 0 1 1 8,0 z"
       id="path3633-7-6-6-7"
       style="fill:#000000;fill-opacity:1;fill-rule:nonzero;stroke:none" />
    <path
       d="m 21.187977,13.648855 a 4,1.9646672 0 0 1 -8,0 4,1.9646672 0 1 1 8,0 z"
       id="path3633-3-49-6-4"
       style="fill:#000000;fill-opacity:1;fill-rule:nonzero;stroke:none" />
    <path
       d="m 31.636653,5.7899859 a 4,1.9646672 0 0 1 -8,0 4,1.9646672 0 1 1 8,0 z"
       id="path3633-2-7-3"
       style="fill:#000000;fill-opacity:1;fill-rule:nonzero;stroke:none" />
    <path
       d="m 31.636653,9.7194203 a 4,1.9646672 0 0 1 -8,0 4,1.9646672 0 1 1 8,0 z"
       id="path3633-7-6-6-1"
       style="fill:#000000;fill-opacity:1;fill-rule:nonzero;stroke:none" />
    <path
       d="m 31.636653,13.648855 a 4,1.9646672 0 0 1 -8,0 4,1.9646672 0 1 1 8,0 z"
       id="path3633-3-49-6-49"
       style="fill:#000000;fill-opacity:1;fill-rule:nonzero;stroke:none" />
    <path
       d="m 42.085328,5.7899859 a 4,1.9646672 0 0 1 -8,0 4,1.9646672 0 1 1 8,0 z"
       id="path3633-2-7-9"
       style="fill:#000000;fill-opacity:1;fill-rule:nonzero;stroke:none" />
    <path
       d="m 42.085328,9.7194203 a 4,1.9646672 0 0 1 -8,0 4,1.9646672 0 1 1 8,0 z"
       id="path3633-7-6-6-5"
       style="fill:#000000;fill-opacity:1;fill-rule:nonzero;stroke:none" />
    <path
       d="m 42.085328,13.648855 a 4,1.9646672 0 0 1 -8,0 4,1.9646672 0 1 1 8,0 z"
       id="path3633-3-49-6-0"
       style="fill:#000000;fill-opacity:1;fill-rule:nonzero;stroke:none" />
  </g>
</svg>
