<?xml version="1.0" encoding="UTF-8" standalone="no"?>
<!-- Created with Inkscape (http://www.inkscape.org/) -->

<svg
   xmlns:dc="http://purl.org/dc/elements/1.1/"
   xmlns:cc="http://creativecommons.org/ns#"
   xmlns:rdf="http://www.w3.org/1999/02/22-rdf-syntax-ns#"
   xmlns:svg="http://www.w3.org/2000/svg"
   xmlns="http://www.w3.org/2000/svg"
   version="1.1"
   width="55"
   height="55"
   id="svg2">
  <metadata
     id="metadata9">
    <rdf:RDF>
      <cc:Work
         rdf:about="">
        <dc:format>image/svg+xml</dc:format>
        <dc:type
           rdf:resource="http://purl.org/dc/dcmitype/StillImage" />
        <dc:title></dc:title>
      </cc:Work>
    </rdf:RDF>
  </metadata>
  <defs
     id="defs7" />
  <g
     transform="matrix(1.3351454,0,0,0.97880072,-0.96078401,-0.03127486)"
     id="g4356">
    <rect
       width="29.083258"
       height="28.668821"
       x="-37.04163"
       y="5.1097512"
       transform="matrix(0,-1,1,0,0,0)"
       id="rect4"
       style="fill:none;stroke:#ffffff;stroke-width:1.42943203;stroke-opacity:1" />
    <line
       id="line10-4"
       style="fill:#aaaaaa;stroke:#ffffff;stroke-width:1.42943203;stroke-opacity:1"
       x2="5.1321182"
       x1="33.756207"
       y2="15.988161"
       y1="15.988161" />
    <line
       id="line10"
       style="fill:#aaaaaa;stroke:#ffffff;stroke-width:1.42943203;stroke-miterlimit:0;stroke-opacity:1;stroke-dasharray:none"
       x2="15.969323"
       x1="15.969323"
       y2="9.475708"
       y1="35.52552" />
    <path
       d="m 18.63619,21.542669 a 2.6668671,2.10697 0 1 1 -5.333734,0 2.6668671,2.10697 0 1 1 5.333734,0 z"
       id="path3633"
       style="fill:#ffffff;fill-opacity:1;fill-rule:nonzero;stroke:#ffffff;stroke-width:0.71241933;stroke-opacity:1" />
    <path
       d="m 18.63619,25.756685 a 2.6668671,2.10697 0 1 1 -5.333734,0 2.6668671,2.10697 0 1 1 5.333734,0 z"
       id="path3633-7"
       style="fill:#ffffff;fill-opacity:1;fill-rule:nonzero;stroke:#ffffff;stroke-width:0.71241933;stroke-opacity:1" />
    <path
       d="m 18.63619,29.970702 a 2.6668671,2.10697 0 1 1 -5.333734,0 2.6668671,2.10697 0 1 1 5.333734,0 z"
       id="path3633-5"
       style="fill:#ffffff;fill-opacity:1;fill-rule:nonzero;stroke:#ffffff;stroke-width:0.71241933;stroke-opacity:1" />
    <path
       d="m 18.63619,34.184719 a 2.6668671,2.10697 0 1 1 -5.333734,0 2.6668671,2.10697 0 1 1 5.333734,0 z"
       id="path3633-3"
       style="fill:#ffffff;fill-opacity:1;fill-rule:nonzero;stroke:#ffffff;stroke-width:0.71241933;stroke-opacity:1" />
    <path
       d="m 18.63619,10.816507 a 2.6668671,2.10697 0 1 1 -5.333734,0 2.6668671,2.10697 0 1 1 5.333734,0 z"
       id="path3633-4"
       style="fill:#ffffff;fill-opacity:1;fill-rule:nonzero;stroke:#ffffff;stroke-width:0.71241933;stroke-opacity:1" />
    <line
       id="line10-2"
       style="fill:#aaaaaa;stroke:#ffffff;stroke-width:1.42943203;stroke-miterlimit:0;stroke-opacity:1;stroke-dasharray:none"
       x2="22.918999"
       x1="22.918999"
       y2="9.475708"
       y1="35.52552" />
    <path
       d="m 25.585865,21.542669 a 2.6668671,2.10697 0 1 1 -5.333734,0 2.6668671,2.10697 0 1 1 5.333734,0 z"
       id="path3633-47"
       style="fill:#ffffff;fill-opacity:1;fill-rule:nonzero;stroke:#ffffff;stroke-width:0.71241933;stroke-opacity:1" />
    <path
       d="m 25.585865,25.756685 a 2.6668671,2.10697 0 1 1 -5.333734,0 2.6668671,2.10697 0 1 1 5.333734,0 z"
       id="path3633-7-4"
       style="fill:#ffffff;fill-opacity:1;fill-rule:nonzero;stroke:#ffffff;stroke-width:0.71241933;stroke-opacity:1" />
    <path
       d="m 25.585865,29.970702 a 2.6668671,2.10697 0 1 1 -5.333734,0 2.6668671,2.10697 0 1 1 5.333734,0 z"
       id="path3633-5-4"
       style="fill:#ffffff;fill-opacity:1;fill-rule:nonzero;stroke:#ffffff;stroke-width:0.71241933;stroke-opacity:1" />
    <path
       d="m 25.585865,34.184719 a 2.6668671,2.10697 0 1 1 -5.333734,0 2.6668671,2.10697 0 1 1 5.333734,0 z"
       id="path3633-3-3"
       style="fill:#ffffff;fill-opacity:1;fill-rule:nonzero;stroke:#ffffff;stroke-width:0.71241933;stroke-opacity:1" />
    <path
       d="m 25.585865,10.816507 a 2.6668671,2.10697 0 1 1 -5.333734,0 2.6668671,2.10697 0 1 1 5.333734,0 z"
       id="path3633-4-0"
       style="fill:#ffffff;fill-opacity:1;fill-rule:nonzero;stroke:#ffffff;stroke-width:0.71241933;stroke-opacity:1" />
    <line
       id="line10-6"
       style="fill:#aaaaaa;stroke:#ffffff;stroke-width:1.42943203;stroke-miterlimit:0;stroke-opacity:1;stroke-dasharray:none"
       x2="29.868673"
       x1="29.868673"
       y2="9.475708"
       y1="35.52552" />
    <path
       d="m 32.53554,21.542669 a 2.6668671,2.10697 0 1 1 -5.333734,0 2.6668671,2.10697 0 1 1 5.333734,0 z"
       id="path3633-8"
       style="fill:#ffffff;fill-opacity:1;fill-rule:nonzero;stroke:#ffffff;stroke-width:0.71241933;stroke-opacity:1" />
    <path
       d="m 32.53554,25.756685 a 2.6668671,2.10697 0 1 1 -5.333734,0 2.6668671,2.10697 0 1 1 5.333734,0 z"
       id="path3633-7-43"
       style="fill:#ffffff;fill-opacity:1;fill-rule:nonzero;stroke:#ffffff;stroke-width:0.71241933;stroke-opacity:1" />
    <path
       d="m 32.53554,29.970702 a 2.6668671,2.10697 0 1 1 -5.333734,0 2.6668671,2.10697 0 1 1 5.333734,0 z"
       id="path3633-5-1"
       style="fill:#ffffff;fill-opacity:1;fill-rule:nonzero;stroke:#ffffff;stroke-width:0.71241933;stroke-opacity:1" />
    <path
       d="m 32.53554,34.184719 a 2.6668671,2.10697 0 1 1 -5.333734,0 2.6668671,2.10697 0 1 1 5.333734,0 z"
       id="path3633-3-4"
       style="fill:#ffffff;fill-opacity:1;fill-rule:nonzero;stroke:#ffffff;stroke-width:0.71241933;stroke-opacity:1" />
    <path
       d="m 32.53554,10.816507 a 2.6668671,2.10697 0 1 1 -5.333734,0 2.6668671,2.10697 0 1 1 5.333734,0 z"
       id="path3633-4-9"
       style="fill:#ffffff;fill-opacity:1;fill-rule:nonzero;stroke:#ffffff;stroke-width:0.71241933;stroke-opacity:1" />
    <line
       id="line10-68"
       style="fill:#aaaaaa;stroke:#ffffff;stroke-width:1.42943203;stroke-miterlimit:0;stroke-opacity:1;stroke-dasharray:none"
       x2="9.0196486"
       x1="9.0196486"
       y2="9.475708"
       y1="35.52552" />
    <path
       d="m 11.686516,21.542669 a 2.6668671,2.10697 0 1 1 -5.3337336,0 2.6668671,2.10697 0 1 1 5.3337336,0 z"
       id="path3633-2"
       style="fill:#ffffff;fill-opacity:1;fill-rule:nonzero;stroke:#ffffff;stroke-width:0.71241933;stroke-opacity:1" />
    <path
       d="m 11.686516,25.756685 a 2.6668671,2.10697 0 1 1 -5.3337336,0 2.6668671,2.10697 0 1 1 5.3337336,0 z"
       id="path3633-7-6"
       style="fill:#ffffff;fill-opacity:1;fill-rule:nonzero;stroke:#ffffff;stroke-width:0.71241933;stroke-opacity:1" />
    <path
       d="m 11.686516,29.970702 a 2.6668671,2.10697 0 1 1 -5.3337336,0 2.6668671,2.10697 0 1 1 5.3337336,0 z"
       id="path3633-5-6"
       style="fill:#ffffff;fill-opacity:1;fill-rule:nonzero;stroke:#ffffff;stroke-width:0.71241933;stroke-opacity:1" />
    <path
       d="m 11.686516,34.184719 a 2.6668671,2.10697 0 1 1 -5.3337336,0 2.6668671,2.10697 0 1 1 5.3337336,0 z"
       id="path3633-3-49"
       style="fill:#ffffff;fill-opacity:1;fill-rule:nonzero;stroke:#ffffff;stroke-width:0.71241933;stroke-opacity:1" />
    <path
       d="m 11.686516,10.816507 a 2.6668671,2.10697 0 1 1 -5.3337336,0 2.6668671,2.10697 0 1 1 5.3337336,0 z"
       id="path3633-4-5"
       style="fill:#ffffff;fill-opacity:1;fill-rule:nonzero;stroke:#ffffff;stroke-width:0.71241933;stroke-opacity:1" />
  </g>
  <g
     transform="translate(0.60496486,2.2436551)"
     id="g4389">
    <path
       d="m 41.93723,47.171834 0.62897,-8.248618 -0.442166,-8.231741 -0.690235,8.327701 0.503431,8.075653 0.550051,-8.237626"
       id="path6165"
       style="fill:#ffffff;fill-rule:evenodd;stroke:#ffffff;stroke-width:1.16902173px;stroke-linecap:butt;stroke-linejoin:round;stroke-opacity:1;marker-start:none" />
    <g
       id="g4384">
      <path
         d="m 50.020454,38.996144 -8.028668,-0.646201 -8.01224,0.454279 8.105642,0.709144 7.860314,-0.517222 -8.017969,-0.56512"
         id="path6167"
         style="fill:#ffffff;fill-rule:evenodd;stroke:#ffffff;stroke-width:1.16902173px;stroke-linecap:butt;stroke-linejoin:round;stroke-opacity:1;marker-start:none" />
      <path
         d="m 47.605273,44.826196 -5.232377,-6.289587 -5.978168,-5.499496 5.243484,6.390016 5.914061,5.344616 -5.280615,-6.224481"
         id="path6169"
         style="fill:#ffffff;fill-rule:evenodd;stroke:#ffffff;stroke-width:1.16902173px;stroke-linecap:butt;stroke-linejoin:round;stroke-opacity:1;marker-start:none" />
      <path
         d="m 47.737363,33.172823 -6.121875,5.375721 -5.352851,6.141943 6.219624,-5.387133 5.202103,-6.076081 -6.058505,5.425281"
         id="path6171"
         style="fill:#ffffff;fill-rule:evenodd;stroke:#ffffff;stroke-width:1.16902173px;stroke-linecap:butt;stroke-linejoin:round;stroke-opacity:1;marker-start:none" />
    </g>
  </g>
</svg>
