<?xml version="1.0" encoding="UTF-8" standalone="no"?>
<!-- Created with Inkscape (http://www.inkscape.org/) -->

<svg
   xmlns:dc="http://purl.org/dc/elements/1.1/"
   xmlns:cc="http://creativecommons.org/ns#"
   xmlns:rdf="http://www.w3.org/1999/02/22-rdf-syntax-ns#"
   xmlns:svg="http://www.w3.org/2000/svg"
   xmlns="http://www.w3.org/2000/svg"
   version="1.1"
   width="55"
   height="55"
   id="svg2">
  <metadata
     id="metadata9">
    <rdf:RDF>
      <cc:Work
         rdf:about="">
        <dc:format>image/svg+xml</dc:format>
        <dc:type
           rdf:resource="http://purl.org/dc/dcmitype/StillImage" />
        <dc:title></dc:title>
      </cc:Work>
    </rdf:RDF>
  </metadata>
  <defs
     id="defs7" />
  <g
     transform="translate(3.6049649,5.2436551)"
     id="g4389">
    <path
       d="m 41.93723,47.171834 0.62897,-8.248618 -0.442166,-8.231741 -0.690235,8.327701 0.503431,8.075653 0.550051,-8.237626"
       id="path6165"
       style="fill:#ffffff;fill-rule:evenodd;stroke:#ffffff;stroke-width:1.16902173px;stroke-linecap:butt;stroke-linejoin:round;stroke-opacity:1;marker-start:none" />
    <g
       id="g4384">
      <path
         d="m 50.020454,38.996144 -8.028668,-0.646201 -8.01224,0.454279 8.105642,0.709144 7.860314,-0.517222 -8.017969,-0.56512"
         id="path6167"
         style="fill:#ffffff;fill-rule:evenodd;stroke:#ffffff;stroke-width:1.16902173px;stroke-linecap:butt;stroke-linejoin:round;stroke-opacity:1;marker-start:none" />
      <path
         d="m 47.605273,44.826196 -5.232377,-6.289587 -5.978168,-5.499496 5.243484,6.390016 5.914061,5.344616 -5.280615,-6.224481"
         id="path6169"
         style="fill:#ffffff;fill-rule:evenodd;stroke:#ffffff;stroke-width:1.16902173px;stroke-linecap:butt;stroke-linejoin:round;stroke-opacity:1;marker-start:none" />
      <path
         d="m 47.737363,33.172823 -6.121875,5.375721 -5.352851,6.141943 6.219624,-5.387133 5.202103,-6.076081 -6.058505,5.425281"
         id="path6171"
         style="fill:#ffffff;fill-rule:evenodd;stroke:#ffffff;stroke-width:1.16902173px;stroke-linecap:butt;stroke-linejoin:round;stroke-opacity:1;marker-start:none" />
    </g>
  </g>
  <g
     transform="translate(0.88146257,0.890625)"
     id="g3954">
    <rect
       width="36.336506"
       height="36.768715"
       x="-40.359375"
       y="4.8685374"
       transform="matrix(0,-1,1,0,0,0)"
       id="rect4-6"
       style="fill:none;stroke:#ffffff;stroke-width:3.5;stroke-linejoin:round;stroke-miterlimit:1.60000002;stroke-opacity:1;stroke-dasharray:none" />
    <line
       y1="16.00807"
       y2="16.00807"
       x1="40.521584"
       x2="4.906013"
       style="fill:#aaaaaa;stroke:#ffffff;stroke-width:2.44068003;stroke-miterlimit:1.60000002;stroke-opacity:1;stroke-dasharray:none"
       id="line10-4-3" />
    <line
       y1="39.378502"
       y2="4.4511342"
       x1="23.062778"
       x2="23.062778"
       style="fill:#ffffff;fill-opacity:1;stroke:#ffffff;stroke-width:2.5;stroke-miterlimit:1.60000002;stroke-opacity:1;stroke-dasharray:none"
       id="line10-8" />
    <path
       d="m 27.530873,23.271165 a 4.4680964,3.0718163 0 1 1 -8.936192,0 4.4680964,3.0718163 0 1 1 8.936192,0 z"
       id="path3633-56"
       style="fill:#ffffff;fill-opacity:1;fill-rule:nonzero;stroke:none" />
    <path
       d="m 27.530873,29.41491 a 4.4680964,3.0718163 0 1 1 -8.936192,0 4.4680964,3.0718163 0 1 1 8.936192,0 z"
       id="path3633-7-1"
       style="fill:#ffffff;fill-opacity:1;fill-rule:nonzero;stroke:none" />
    <path
       d="m 27.530873,35.558654 a 4.4680964,3.0718163 0 1 1 -8.936192,0 4.4680964,3.0718163 0 1 1 8.936192,0 z"
       id="path3633-5-15"
       style="fill:#ffffff;fill-opacity:1;fill-rule:nonzero;stroke:none" />
    <path
       d="m 27.530873,8.8698857 a 4.4680964,3.0718163 0 1 1 -8.936192,0 4.4680964,3.0718163 0 1 1 8.936192,0 z"
       id="path3633-4-98"
       style="fill:#ffffff;fill-opacity:1;fill-rule:nonzero;stroke:none" />
    <line
       y1="39.378502"
       y2="4.4511342"
       x1="33.593018"
       x2="33.593018"
       style="fill:#ffffff;fill-opacity:1;stroke:#ffffff;stroke-width:2.5;stroke-miterlimit:1.60000002;stroke-opacity:1;stroke-dasharray:none"
       id="line10-2-4" />
    <path
       d="m 38.061108,23.271165 a 4.4680964,3.0718163 0 1 1 -8.936191,0 4.4680964,3.0718163 0 1 1 8.936191,0 z"
       id="path3633-47-8"
       style="fill:#ffffff;fill-opacity:1;fill-rule:nonzero;stroke:none" />
    <path
       d="m 38.061108,29.41491 a 4.4680964,3.0718163 0 1 1 -8.936191,0 4.4680964,3.0718163 0 1 1 8.936191,0 z"
       id="path3633-7-4-1"
       style="fill:#ffffff;fill-opacity:1;fill-rule:nonzero;stroke:none" />
    <path
       d="m 38.061108,35.558654 a 4.4680964,3.0718163 0 1 1 -8.936191,0 4.4680964,3.0718163 0 1 1 8.936191,0 z"
       id="path3633-5-4-0"
       style="fill:#ffffff;fill-opacity:1;fill-rule:nonzero;stroke:none" />
    <path
       d="m 38.061108,8.8698857 a 4.4680964,3.0718163 0 1 1 -8.936191,0 4.4680964,3.0718163 0 1 1 8.936191,0 z"
       id="path3633-4-0-3"
       style="fill:#ffffff;fill-opacity:1;fill-rule:nonzero;stroke:none" />
    <line
       y1="39.378502"
       y2="4.4511342"
       x1="12.532538"
       x2="12.532538"
       style="fill:#ffffff;fill-opacity:1;stroke:#ffffff;stroke-width:2.5;stroke-miterlimit:1.60000002;stroke-opacity:1;stroke-dasharray:none"
       id="line10-68-0" />
    <path
       d="m 17.000638,23.271165 a 4.4680964,3.0718163 0 1 1 -8.93619,0 4.4680964,3.0718163 0 1 1 8.93619,0 z"
       id="path3633-2-4"
       style="fill:#ffffff;fill-opacity:1;fill-rule:nonzero;stroke:none" />
    <path
       d="m 17.000638,29.41491 a 4.4680964,3.0718163 0 1 1 -8.93619,0 4.4680964,3.0718163 0 1 1 8.93619,0 z"
       id="path3633-7-6-4"
       style="fill:#ffffff;fill-opacity:1;fill-rule:nonzero;stroke:none" />
    <path
       d="m 17.000638,35.558654 a 4.4680964,3.0718163 0 1 1 -8.93619,0 4.4680964,3.0718163 0 1 1 8.93619,0 z"
       id="path3633-5-6-4"
       style="fill:#ffffff;fill-opacity:1;fill-rule:nonzero;stroke:none" />
    <path
       d="m 17.000638,8.8698857 a 4.4680964,3.0718163 0 1 1 -8.93619,0 4.4680964,3.0718163 0 1 1 8.93619,0 z"
       id="path3633-4-5-4"
       style="fill:#ffffff;fill-opacity:1;fill-rule:nonzero;stroke:none" />
  </g>
</svg>
